<?xml version="1.0" encoding="UTF-8"?>
<svg id="Layer_2" xmlns="http://www.w3.org/2000/svg" viewBox="0 0 242.75544 428.587251">
  <defs>
    <style>
      .cls-1 {
        fill: #2875b1;
      }

      .cls-2 {
        fill: #d32d34;
      }
    </style>
  </defs>
  <g id="Layer_1-2" data-name="Layer_1">
    <g>
      <path class="cls-1" d="M130.110761,143.580414c-1.437035,1.332664-2.418548,2.230843-3.387053,3.142858-10.518901,9.905698-26.613348,7.438863-33.667074-5.153679-4.852572-8.662945-4.794776-17.78494-2.148293-26.970219,2.868422-9.955626,8.365672-18.134261,17.770581-23.06767,8.889022-4.66282,21.221384-4.109519,28.623138,6.307188.129211.181854.326484.315392.734066.699774.491787-2.341471.870769-4.492029,1.431576-6.594096.157638-.590888.831512-1.464808,1.298909-1.484364,3.151017-.131839,6.310165-.068729,9.856046-.068729-.66949,3.567035-1.274489,6.876924-1.913607,10.180193-2.25609,11.660259-4.557912,23.311836-6.75651,34.982897-.405172,2.15079-.960607,4.68181,1.138019,6.199333,2.075165,1.500537,4.459915.645898,6.539842-.428967,6.812028-3.520388,11.158527-9.258029,14.003588-16.188394,8.437827-20.553941-1.388196-42.518958-22.318766-50.047238-18.840655-6.776567-40.663134-1.728806-53.01585,12.510964-9.349929,10.778267-12.963335,23.632005-12.30983,37.670306.218643,4.697156,1.016255,9.499031,2.410926,13.98515,4.238484,13.633637,13.42009,22.888037,26.855656,27.466173,15.221399,5.186678,30.384218,4.599608,45.163365-2.057685,5.135995-2.313509,9.436791-5.749968,13.327508-9.791832.766064-.795797,2.102749-1.367159,3.216117-1.440954,2.972328-.197069,5.966317-.067103,9.485746-.067103-2.604612,4.479137-5.494797,8.06111-8.957925,11.178562-10.795457,9.717935-23.697902,14.050874-37.998997,14.634213-11.364931.463564-22.529933-.595868-32.940804-5.620292-17.111792-8.258455-26.745551-22.04266-29.444386-40.727071-2.303448-15.946958.372013-30.98643,9.091463-44.657335,9.978478-15.644871,24.691858-23.449526,42.933974-24.890038,9.914075-.782883,19.637484.269929,28.880458,4.238165,28.315049,12.156366,35.40054,45.260397,21.037105,67.861512-5.488612,8.636435-13.030699,14.928147-23.373306,16.994746-2.593724.518269-5.390469.49112-8.033642.188445-4.767119-.545853-7.198588-3.591106-7.53204-8.984813ZM100.566026,126.392867c.148274,1.671169.208597,2.700316.334919,3.721304,1.445426,11.682298,12.250596,16.953675,21.51044,10.500172,9.183334-6.400192,14.530394-22.123947,11.140089-32.758979-2.136925-6.703345-7.129336-10.263367-13.931157-9.780653-4.32523.306957-7.837212,2.367357-10.676031,5.561638-5.926653,6.668719-8.1158,14.690427-8.378259,22.756517Z"/>
      <g>
        <path class="cls-2" d="M242.75527,121.378708c.027875,20.628898-5.30397,39.841291-14.60342,58.197098-5.146797,10.15904-9.351279,20.796525-13.951672,31.23109-14.664106,33.260914-29.321736,66.524704-43.968304,99.793371-12.030835,27.327263-24.035856,54.665909-36.067765,81.992708-2.416022,5.48716-6.534441,8.837424-12.642281,8.829962-6.265942-.007666-10.496978-3.342802-12.994999-9.051799-9.839844-22.487874-19.690823-44.970956-29.585821-67.434642-15.865496-36.017938-31.780413-72.014099-47.650337-108.030092-5.012809-11.376328-23.702926-51.265528-26.165464-60.573311C-7.408578,108.958657,2.835538,67.428355,38.182579,33.075124,58.543908,13.286246,83.41097,2.573811,111.842716.372222c54.733317-4.238234,105.046687,28.052038,123.886907,79.74008,4.842352,13.284955,7.048093,27.107212,7.025648,41.266406ZM219.2637,119.27818c-1.338079-54.45189-45.925175-97.061768-100.314586-95.866141-54.052619,1.18823-97.018693,46.306175-95.4085,100.715418,1.559655,52.701968,45.362089,96.696404,100.74878,95.058962,54.477086-1.610555,95.707647-46.794275,94.974306-99.908238Z"/>
        <polygon class="cls-2" points="121.531855 428.587251 104.3469 381.188279 139.006404 381.188279 121.531855 428.587251"/>
      </g>
    </g>
  </g>
</svg>