<?xml version="1.0" encoding="UTF-8" standalone="no"?><!DOCTYPE svg PUBLIC "-//W3C//DTD SVG 1.1//EN" "http://www.w3.org/Graphics/SVG/1.1/DTD/svg11.dtd"><svg width="100%" height="100%" viewBox="0 0 5506 3509" version="1.1" xmlns="http://www.w3.org/2000/svg" xmlns:xlink="http://www.w3.org/1999/xlink" xml:space="preserve" xmlns:serif="http://www.serif.com/" style="fill-rule:evenodd;clip-rule:evenodd;stroke-linejoin:round;stroke-miterlimit:2;"><rect id="Artboard1" x="-101.378" y="-1754.17" width="5708.15" height="6097.41" style="fill:none;"/><path d="M1764.44,2153.78c-483.831,-62.512 -859.892,-519.515 -859.892,-1073.24c0,-553.726 376.061,-1010.73 859.892,-1073.24l0,-7.298l3015.49,-0c400.398,-0 725.471,484.173 725.471,1080.54c-0,596.365 -325.073,1080.54 -725.471,1080.54c-0,0 -3015.49,0 -3015.49,0l0,-7.298Zm-60.079,-610.233c-398.483,-26.968 -708.206,-224.124 -708.206,-463.007c-0,-238.884 309.723,-436.04 708.206,-463.008l0,-3.148l2483.55,-0c329.767,-0 597.496,208.877 597.496,466.156c0,257.278 -267.729,466.156 -597.496,466.156c-0,-0 -2483.55,-0 -2483.55,-0l0,-3.149Z" style="fill-opacity:0.5;"/><path d="M3740.96,1354.55c483.832,62.513 859.892,519.515 859.892,1073.24c0,553.725 -376.06,1010.73 -859.892,1073.24l0,7.297l-3015.49,0c-400.399,0 -725.471,-484.173 -725.471,-1080.54c-0,-596.366 325.072,-1080.54 725.471,-1080.54c-0,0 3015.49,0 3015.49,0l0,7.298Zm60.079,610.233c398.484,26.969 708.207,224.125 708.207,463.008c-0,238.883 -309.723,436.039 -708.207,463.007l0,3.149l-2483.55,-0c-329.767,-0 -597.497,-208.878 -597.497,-466.156c0,-257.279 267.73,-466.156 597.497,-466.156c-0,-0 2483.55,-0 2483.55,-0l0,3.148Z" style="fill-opacity:0.5;"/></svg>